<?xml version="1.0" encoding="UTF-8" standalone="no"?>
<!-- Generator: Adobe Illustrator 18.1.0, SVG Export Plug-In . SVG Version: 6.00 Build 0)  -->

<svg
   xmlns:dc="http://purl.org/dc/elements/1.1/"
   xmlns:cc="http://creativecommons.org/ns#"
   xmlns:rdf="http://www.w3.org/1999/02/22-rdf-syntax-ns#"
   xmlns:svg="http://www.w3.org/2000/svg"
   xmlns="http://www.w3.org/2000/svg"
   xmlns:sodipodi="http://sodipodi.sourceforge.net/DTD/sodipodi-0.dtd"
   xmlns:inkscape="http://www.inkscape.org/namespaces/inkscape"
   version="1.1"
   id="svg4672"
   sodipodi:docname="PublicInformationSymbol_EmergencyExit.svg"
   inkscape:version="0.48.5 r10040"
   inkscape:output_extension="org.inkscape.output.svg.inkscape"
   sodipodi:version="0.32"
   x="0px"
   y="0px"
   viewBox="229 -258 599.9 600"
   enable-background="new 229 -258 599.9 600"
   xml:space="preserve"
   width="100%"
   height="100%"><metadata
   id="metadata11"><rdf:RDF><cc:Work
       rdf:about=""><dc:format>image/svg+xml</dc:format><dc:type
         rdf:resource="http://purl.org/dc/dcmitype/StillImage" /><dc:title></dc:title></cc:Work></rdf:RDF></metadata><defs
   id="defs9">
		
		
		
	</defs>
<sodipodi:namedview
   inkscape:pageopacity="0.0"
   inkscape:document-units="px"
   inkscape:window-y="-8"
   inkscape:current-layer="layer1"
   inkscape:window-height="987"
   inkscape:window-x="-8"
   inkscape:window-width="1680"
   inkscape:pageshadow="2"
   id="base"
   guidetolerance="10"
   objecttolerance="10"
   inkscape:zoom="0.5"
   inkscape:cx="293.48653"
   inkscape:cy="325.17915"
   bordercolor="#666666"
   pagecolor="#ffffff"
   gridtolerance="10000"
   borderopacity="1.0"
   showgrid="false"
   inkscape:object-paths="true"
   inkscape:object-nodes="true"
   inkscape:snap-page="true"
   inkscape:snap-intersection-paths="true"
   inkscape:window-maximized="1">
	</sodipodi:namedview>
<g
   id="layer1"
   transform="translate(-310.97085,3.6021267)"
   inkscape:groupmode="layer"
   inkscape:label="Layer 1">
	<path
   style="fill:#269463"
   d="m 540.18959,-261.38338 0,599.1875 207.5625,0 -70.28125,-69.8125 0,-217.375 0,-29.96875 0,-45.9375 0,-23.09375 0,-166.625 43.125,-46.375 -180.40625,0 z"
   id="path3010" /><path
   style="fill:#269463"
   d="m 810.03334,-104.91463 c -16.39712,0 -31.38048,7.47501 -41.21875,18.71875 l -48.71875,60.90625 -30.9375,0 0,45.9375 32.34375,0 c 13.58619,0 26.22292,-6.56798 33.71875,-16.40625 l 30,-36.53125 31.375,78.6875 -101.1875,209.40625 39.8125,0 c 12.18072,0 22.50261,-6.53673 27.1875,-16.375 l 82.46875,-171 10.28125,96.5 c 0.46849,11.24374 10.31876,19.6875 21.5625,19.6875 l 153.65626,0 -9.8438,-25.3125 c -5.6219,-12.18071 -16.8515,-21.09375 -30.9062,-21.09375 l -89.00001,0 -10.3125,-110.09375 -34.6875,-86.1875 45,0 27.625,53.40625 c 3.74791,6.55885 9.37969,10.3125 17.8125,10.3125 10.77525,0 19.65625,-9.38074 19.65625,-19.6875 0,-3.74791 -0.93829,-6.5638 -2.34375,-8.90625 l -30.90625,-58.5625 c -7.49582,-14.52316 -22.00913,-23.40625 -38.40625,-23.40625 l -104.03125,0 z"
   id="path3002" /><path
   style="fill:#269463"
   d="m 1051.2844,-261.38338 -48.0938,46.375 c -0.2507,114.03344 -0.126,228.681068 -0.126,342.9375 l 6.5625,0 c 18.7395,0 33.7224,11.22788 40.2812,27.625 l 15,39.8125 -61.8437,0 0,73.5625 69.8125,69.8125 67.4687,0 0,-600.125 z"
   id="path3495"
   inkscape:connector-curvature="0"
   sodipodi:nodetypes="cccscccccccc" /><path
   style="fill:#269463"
   inkscape:connector-curvature="0"
   d="m 784.2816,-192.52764 2.34244,0 2.34245,0 2.34245,0.46849 1.87395,0.46849 1.87396,0.46849 1.87396,0.46849 1.87395,0.93698 1.87396,0.93698 1.87395,0.93697 1.87396,0.93698 1.87396,0.93698 1.87395,0.93698 1.40547,1.40547 1.40547,1.40546 1.40547,1.40547 1.40546,1.40547 1.40547,1.40547 1.40547,1.40546 1.40547,1.40547 1.40546,1.87396 0.93698,1.87395 0.93698,1.87396 0.93698,1.87396 0.93698,1.87395 0.93698,1.87396 0.46848,1.87396 0.46849,1.87395 0.46849,1.87396 0.46849,1.87396 0.46849,2.34244 0,2.34245 0,2.34244 c 0,23.42446 -19.67654,42.16403 -42.63251,42.16403 -23.42446,0 -42.16402,-18.73957 -42.16402,-42.16403 0,-23.42445 19.67654,-43.101 42.63251,-43.101 z"
   id="path3497" /><path
   style="fill:#269463"
   inkscape:connector-curvature="0"
   d="m 803.02116,284.39432 53.87626,53.87625 h -65.12 l -70.27337,-69.80488 h 42.16403 c 14.52316,0 29.04632,6.09035 39.35308,15.92863 z"
   id="path3499" />
<path
   style="fill:#269463"
   d="M 228.71875 0 L 181.53125 46.875 L 223.6875 46.875 C 238.21066 46.875 252.75574 40.77578 263.0625 30.9375 L 294 0 L 228.71875 0 z "
   id="path2995"
   transform="translate(539.97084,-261.60213)" /></g>
</svg>
